<svg xml:space="preserve" style="max-height: 500px" viewBox="215.97300337457818 336.96 1503.172103487064 401.76" y="0px" x="0px" xmlns:xlink="http://www.w3.org/1999/xlink" xmlns="http://www.w3.org/2000/svg" version="1.1" width="1503.172103487064" height="401.76">
<style type="text/css">
	.st0{fill:#FFFFFF;}
	.st1{fill:#1C0AA3;}
	.st2{fill-rule:evenodd;clip-rule:evenodd;fill:#FFFFFF;}
</style>
<g id="Layer_1">
	<rect height="1082.43" width="1920" y="-0.61" x="3.15"/>
	<g>
		<g>
			<g>
				<polygon points="362.78,593.94 483.56,678.35 483.56,555.07 448.37,555.07 448.37,607.27 398.92,570.61 &#10;&#9;&#9;&#9;&#9;&#9;398.92,444.01 449.32,444.93 448.37,471.52 483.56,471.52 483.56,402.1 362.78,401.65" class="st0"/>
				<polygon points="614.2,401.65 493.43,402.1 493.43,471.52 528.61,471.52 527.67,444.93 578.06,444.01 &#10;&#9;&#9;&#9;&#9;&#9;578.06,570.61 528.61,607.27 528.61,555.07 493.43,555.07 493.43,678.35 614.2,593.94" class="st0"/>
			</g>
		</g>
		<g>
			<g>
				<rect height="6.49" width="164.95" class="st1" y="569.58" x="635.69"/>
				<rect height="6.49" width="167.45" class="st1" y="569.58" x="1385.35"/>
				<g>
					<path d="M822.66,587.79c-1.46,0-2.78-0.35-3.97-1.07c-1.19-0.71-2.14-1.66-2.85-2.85&#10;&#9;&#9;&#9;&#9;&#9;&#9;c-0.71-1.19-1.07-2.51-1.07-3.97v-22.58c0-1.46,0.35-2.78,1.07-3.97c0.71-1.19,1.66-2.14,2.85-2.85&#10;&#9;&#9;&#9;&#9;&#9;&#9;c1.19-0.71,2.51-1.07,3.97-1.07h30.35v8.31h-28.22c-0.57,0-1,0.14-1.31,0.43s-0.45,0.73-0.45,1.33v18.21&#10;&#9;&#9;&#9;&#9;&#9;&#9;c0,0.57,0.15,1,0.45,1.31c0.3,0.3,0.74,0.45,1.31,0.45h28.22v8.31H822.66z" class="st1"/>
					<path d="M872.29,598.86v-8.2h18.32v-2.88h-15.44c-1.42,0-2.72-0.35-3.89-1.07c-1.17-0.71-2.11-1.65-2.82-2.82&#10;&#9;&#9;&#9;&#9;&#9;&#9;c-0.71-1.17-1.07-2.45-1.07-3.83v-23.06h8.15v22.63h15.07v-22.63h8.15v34.13c0,1.42-0.35,2.72-1.04,3.89&#10;&#9;&#9;&#9;&#9;&#9;&#9;c-0.69,1.17-1.62,2.1-2.8,2.8c-1.17,0.69-2.47,1.04-3.89,1.04H872.29z" class="st1"/>
					<path d="M914.1,587.79v-41h8.15v10.12h15.44c1.42,0,2.72,0.36,3.89,1.07c1.17,0.71,2.1,1.65,2.8,2.82&#10;&#9;&#9;&#9;&#9;&#9;&#9;c0.69,1.17,1.04,2.45,1.04,3.83v15.44c0,1.38-0.35,2.66-1.04,3.83c-0.69,1.17-1.62,2.11-2.8,2.82&#10;&#9;&#9;&#9;&#9;&#9;&#9;c-1.17,0.71-2.47,1.07-3.89,1.07H914.1z M937.26,579.64v-14.59h-15.02v14.59H937.26z" class="st1"/>
					<path d="M962.93,586.72c-1.17-0.71-2.11-1.65-2.82-2.82c-0.71-1.17-1.07-2.45-1.07-3.83v-15.44&#10;&#9;&#9;&#9;&#9;&#9;&#9;c0-1.38,0.35-2.66,1.07-3.83c0.71-1.17,1.65-2.11,2.82-2.82c1.17-0.71,2.45-1.07,3.83-1.07h15.87c1.42,0,2.72,0.36,3.89,1.07&#10;&#9;&#9;&#9;&#9;&#9;&#9;c1.17,0.71,2.1,1.65,2.8,2.82c0.69,1.17,1.04,2.45,1.04,3.83v11.82h-23.16v3.2h23.16v8.15h-23.59&#10;&#9;&#9;&#9;&#9;&#9;&#9;C965.38,587.79,964.1,587.43,962.93,586.72z M967.19,569.31h15.02v-4.26h-15.02V569.31z" class="st1"/>
					<path d="M1005.16,587.79v-23.16c0-1.38,0.35-2.66,1.07-3.83c0.71-1.17,1.65-2.11,2.82-2.82&#10;&#9;&#9;&#9;&#9;&#9;&#9;c1.17-0.71,2.47-1.07,3.89-1.07h17.04v8.15h-16.67v22.74H1005.16z" class="st1"/>
					<path d="M1069.8,587.79v-38.34h30.41c1.45,0,2.78,0.36,3.97,1.07c1.19,0.71,2.15,1.66,2.88,2.85&#10;&#9;&#9;&#9;&#9;&#9;&#9;c0.73,1.19,1.09,2.51,1.09,3.97v22.58c0,1.42-0.36,2.73-1.09,3.94c-0.73,1.21-1.69,2.17-2.88,2.88&#10;&#9;&#9;&#9;&#9;&#9;&#9;c-1.19,0.71-2.51,1.07-3.97,1.07H1069.8z M1099.78,579.48v-21.73H1078v21.73H1099.78z" class="st1"/>
					<path d="M1127.31,586.72c-1.17-0.71-2.11-1.65-2.82-2.82c-0.71-1.17-1.07-2.45-1.07-3.83v-15.44&#10;&#9;&#9;&#9;&#9;&#9;&#9;c0-1.38,0.35-2.66,1.07-3.83c0.71-1.17,1.65-2.11,2.82-2.82c1.17-0.71,2.45-1.07,3.83-1.07h15.87c1.42,0,2.72,0.36,3.89,1.07&#10;&#9;&#9;&#9;&#9;&#9;&#9;c1.17,0.71,2.1,1.65,2.8,2.82c0.69,1.17,1.04,2.45,1.04,3.83v11.82h-23.16v3.2h23.16v8.15h-23.59&#10;&#9;&#9;&#9;&#9;&#9;&#9;C1129.76,587.79,1128.48,587.43,1127.31,586.72z M1131.57,569.31h15.02v-4.26h-15.02V569.31z" class="st1"/>
					<path d="M1169.97,587.79V554.5c0-1.38,0.35-2.66,1.07-3.83c0.71-1.17,1.65-2.11,2.82-2.82&#10;&#9;&#9;&#9;&#9;&#9;&#9;c1.17-0.71,2.47-1.07,3.89-1.07h11.82v8.2h-11.45v1.92h11.45v8.15h-11.45v22.74H1169.97z" class="st1"/>
					<path d="M1206.76,586.72c-1.17-0.71-2.11-1.65-2.82-2.82c-0.71-1.17-1.07-2.45-1.07-3.83v-15.44&#10;&#9;&#9;&#9;&#9;&#9;&#9;c0-1.38,0.35-2.66,1.07-3.83c0.71-1.17,1.65-2.11,2.82-2.82c1.17-0.71,2.45-1.07,3.83-1.07h15.87c1.42,0,2.72,0.36,3.89,1.07&#10;&#9;&#9;&#9;&#9;&#9;&#9;c1.17,0.71,2.1,1.65,2.8,2.82c0.69,1.17,1.04,2.45,1.04,3.83v11.82h-23.16v3.2h23.16v8.15h-23.59&#10;&#9;&#9;&#9;&#9;&#9;&#9;C1209.21,587.79,1207.93,587.43,1206.76,586.72z M1211.02,569.31h15.02v-4.26h-15.02V569.31z" class="st1"/>
					<path d="M1249.47,587.79V556.9h23.59c1.42,0,2.72,0.36,3.89,1.07c1.17,0.71,2.1,1.65,2.8,2.82&#10;&#9;&#9;&#9;&#9;&#9;&#9;c0.69,1.17,1.04,2.45,1.04,3.83v23.16h-8.15v-22.74h-15.02v22.74H1249.47z" class="st1"/>
					<path d="M1298.51,586.72c-1.17-0.71-2.11-1.65-2.82-2.82c-0.71-1.17-1.07-2.45-1.07-3.83v-15.44&#10;&#9;&#9;&#9;&#9;&#9;&#9;c0-1.38,0.35-2.66,1.07-3.83c0.71-1.17,1.65-2.11,2.82-2.82c1.17-0.71,2.45-1.07,3.83-1.07h23.54v8.15h-23.11v14.59h23.16v8.15&#10;&#9;&#9;&#9;&#9;&#9;&#9;h-23.59C1300.96,587.79,1299.68,587.43,1298.51,586.72z" class="st1"/>
					<path d="M1343.78,586.72c-1.17-0.71-2.11-1.65-2.82-2.82c-0.71-1.17-1.06-2.45-1.06-3.83v-15.44&#10;&#9;&#9;&#9;&#9;&#9;&#9;c0-1.38,0.35-2.66,1.06-3.83c0.71-1.17,1.65-2.11,2.82-2.82c1.17-0.71,2.45-1.07,3.83-1.07h15.87c1.42,0,2.72,0.36,3.89,1.07&#10;&#9;&#9;&#9;&#9;&#9;&#9;c1.17,0.71,2.1,1.65,2.8,2.82c0.69,1.17,1.04,2.45,1.04,3.83v11.82h-23.16v3.2h23.16v8.15h-23.59&#10;&#9;&#9;&#9;&#9;&#9;&#9;C1346.23,587.79,1344.95,587.43,1343.78,586.72z M1348.04,569.31h15.02v-4.26h-15.02V569.31z" class="st1"/>
				</g>
			</g>
			<g>
				<g>
					<path d="M646.44,533.05c-1.99,0-3.79-0.48-5.41-1.44c-1.62-0.96-2.92-2.25-3.89-3.86&#10;&#9;&#9;&#9;&#9;&#9;&#9;c-0.97-1.61-1.45-3.4-1.45-5.37v-30.57c0-1.97,0.48-3.76,1.45-5.37c0.97-1.61,2.26-2.89,3.89-3.86&#10;&#9;&#9;&#9;&#9;&#9;&#9;c1.62-0.96,3.42-1.44,5.41-1.44h41.4v11.25h-38.49c-0.78,0-1.37,0.19-1.78,0.58c-0.41,0.38-0.62,0.98-0.62,1.8v24.66&#10;&#9;&#9;&#9;&#9;&#9;&#9;c0,0.77,0.21,1.36,0.62,1.77c0.41,0.41,1,0.61,1.78,0.61h38.49v11.25H646.44z" class="st0"/>
					<path d="M705.99,533.05c-1.94,0-3.73-0.48-5.37-1.44c-1.65-0.96-2.95-2.26-3.92-3.89&#10;&#9;&#9;&#9;&#9;&#9;&#9;c-0.97-1.63-1.45-3.41-1.45-5.33v-30.57c0-1.97,0.48-3.76,1.45-5.37c0.97-1.61,2.28-2.89,3.92-3.86&#10;&#9;&#9;&#9;&#9;&#9;&#9;c1.64-0.96,3.44-1.44,5.37-1.44h30.79c1.94,0,3.72,0.48,5.34,1.44c1.62,0.96,2.93,2.25,3.92,3.86c0.99,1.61,1.49,3.4,1.49,5.37&#10;&#9;&#9;&#9;&#9;&#9;&#9;v30.57c0,1.92-0.5,3.7-1.49,5.33c-0.99,1.63-2.3,2.93-3.92,3.89c-1.62,0.96-3.4,1.44-5.34,1.44H705.99z M736.13,521.8v-29.42&#10;&#9;&#9;&#9;&#9;&#9;&#9;H706.5v29.42H736.13z" class="st0"/>
					<path d="M755.52,533.05v-51.91h11.62l17.72,20.98l17.65-20.98h11.69v51.91h-11.33v-34.82l-18.01,21.34&#10;&#9;&#9;&#9;&#9;&#9;&#9;l-18.08-21.27v34.75H755.52z" class="st0"/>
					<path d="M822.91,533.05v-51.91h11.62l17.72,20.98l17.65-20.98h11.69v51.91h-11.33v-34.82l-18.01,21.34&#10;&#9;&#9;&#9;&#9;&#9;&#9;l-18.08-21.27v34.75H822.91z" class="st0"/>
					<path d="M890.45,491.81c0-1.97,0.48-3.76,1.45-5.37c0.97-1.61,2.28-2.89,3.92-3.86c1.64-0.96,3.44-1.44,5.37-1.44&#10;&#9;&#9;&#9;&#9;&#9;&#9;h30.72c1.98,0,3.79,0.48,5.41,1.44c1.62,0.96,2.93,2.25,3.92,3.86c0.99,1.61,1.49,3.4,1.49,5.37v41.24h-11.4v-16.73h-29.63&#10;&#9;&#9;&#9;&#9;&#9;&#9;v16.73h-11.26V491.81z M931.34,505.07v-12.69h-29.63v12.69H931.34z" class="st0"/>
					<path d="M951.02,533.05v-51.91h11.62l29.27,34.61v-34.61h11.4v51.91h-11.62l-29.41-34.75v34.75H951.02z" class="st0"/>
					<path d="M1011.58,533.05v-51.91h41.47c1.98,0,3.79,0.48,5.41,1.44c1.62,0.96,2.93,2.25,3.92,3.86&#10;&#9;&#9;&#9;&#9;&#9;&#9;c0.99,1.61,1.49,3.4,1.49,5.37v30.57c0,1.92-0.5,3.7-1.49,5.33c-0.99,1.63-2.3,2.93-3.92,3.89c-1.62,0.96-3.43,1.44-5.41,1.44&#10;&#9;&#9;&#9;&#9;&#9;&#9;H1011.58z M1052.47,521.8v-29.42h-29.7v29.42H1052.47z" class="st0"/>
					<g>
						<path d="M1093.56,533.05c-1.96,0-3.73-0.48-5.33-1.44c-1.6-0.96-2.87-2.25-3.83-3.86&#10;&#9;&#9;&#9;&#9;&#9;&#9;&#9;c-0.95-1.61-1.43-3.4-1.43-5.37v-30.57c0-1.97,0.48-3.76,1.43-5.37c0.95-1.61,2.23-2.89,3.83-3.86&#10;&#9;&#9;&#9;&#9;&#9;&#9;&#9;c1.6-0.96,3.37-1.44,5.33-1.44h40.77v11.25h-37.91c-0.76,0-1.35,0.19-1.75,0.58c-0.41,0.38-0.61,0.98-0.61,1.8v24.66&#10;&#9;&#9;&#9;&#9;&#9;&#9;&#9;c0,0.77,0.2,1.36,0.61,1.77c0.4,0.41,0.99,0.61,1.75,0.61h37.91v11.25H1093.56z" class="st0"/>
						<path d="M1141.91,533.05v-51.91h47.56v11.25h-36.33v9.08h29.25v11.25h-29.25v9.08h36.33v11.25H1141.91z" class="st0"/>
						<path d="M1196.56,533.05v-51.91H1208l28.82,34.61v-34.61h11.23v51.91h-11.44l-28.97-34.75v34.75H1196.56z" class="st0"/>
						<path d="M1273.66,533.05v-40.66h-20.17v-11.25h51.5v11.25h-20.17v40.66H1273.66z" class="st0"/>
						<path d="M1310.35,533.05v-51.84h40.84c1.95,0,3.73,0.48,5.33,1.44c1.6,0.96,2.88,2.26,3.86,3.89&#10;&#9;&#9;&#9;&#9;&#9;&#9;&#9;c0.98,1.63,1.47,3.41,1.47,5.33v13.41c0,1.92-0.49,3.7-1.47,5.33c-0.98,1.63-2.27,2.93-3.86,3.89&#10;&#9;&#9;&#9;&#9;&#9;&#9;&#9;c-1.6,0.96-3.37,1.44-5.33,1.44l-29.75,0.07v17.02H1310.35z M1350.62,504.71v-12.33h-29.18v12.33H1350.62z M1350.33,533.05&#10;&#9;&#9;&#9;&#9;&#9;&#9;&#9;l-14.95-17.95h14.52l11.87,14.13v3.82H1350.33z" class="st0"/>
						<path d="M1369.5,533.05v-51.91h47.56v11.25h-36.33v9.08h29.25v11.25h-29.25v9.08h36.33v11.25H1369.5z" class="st0"/>
						<path d="M1445.39,533.05v-51.91h10.94v51.91H1445.39z" class="st0"/>
						<path d="M1481.5,533.05v-40.66h-20.17v-11.25h51.5v11.25h-20.17v40.66H1481.5z" class="st0"/>
					</g>
				</g>
				<g>
					<path d="M1539.02,464.62c8.4,0,15.21,6.76,15.21,15.1c0,8.34-6.81,15.1-15.21,15.1c-8.4,0-15.21-6.76-15.21-15.1&#10;&#9;&#9;&#9;&#9;&#9;&#9;C1523.81,471.38,1530.62,464.62,1539.02,464.62 M1539.02,461.66c10.05,0,18.2,8.09,18.2,18.07c0,9.98-8.15,18.07-18.2,18.07&#10;&#9;&#9;&#9;&#9;&#9;&#9;c-10.05,0-18.2-8.09-18.2-18.07C1520.82,469.75,1528.97,461.66,1539.02,461.66z" class="st2"/>
					<g>
						<g>
							<path d="M1547.06,489.2h-3.57l-5.8-6.54h-4.03v6.54h-3.05v-18.96c2.97,0,5.91,0.03,8.88,0.03&#10;&#9;&#9;&#9;&#9;&#9;&#9;&#9;&#9;c4.41,0,6.73,3,6.73,6.19c0,2.7-1.42,5.35-5.18,5.9l5.69,6.3L1547.06,489.2z M1533.65,473.03v6.87h5.8&#10;&#9;&#9;&#9;&#9;&#9;&#9;&#9;&#9;c2.53,0,3.65-1.6,3.65-3.38c0-1.7-1.12-3.49-3.62-3.49H1533.65z" class="st0"/>
							<path d="M1547.93,489.7h-4.67l-5.8-6.54h-3.31v6.54h-4.05v-19.95h0.5c1.49,0,2.96,0.01,4.44,0.01&#10;&#9;&#9;&#9;&#9;&#9;&#9;&#9;&#9;c1.48,0.01,2.95,0.01,4.44,0.01c4.97,0,7.23,3.47,7.23,6.69c0,3.19-1.75,5.46-4.72,6.21l5.11,5.66L1547.93,489.7z&#10;&#9;&#9;&#9;&#9;&#9;&#9;&#9;&#9; M1543.71,488.71h2.4l-6.07-6.71l0.92-0.13c4.29-0.62,4.75-3.99,4.75-5.41c0-2.75-1.95-5.7-6.23-5.7&#10;&#9;&#9;&#9;&#9;&#9;&#9;&#9;&#9;c-1.49,0-2.96-0.01-4.44-0.01c-1.31-0.01-2.62-0.01-3.94-0.01v17.97h2.06v-6.54h4.75L1543.71,488.71z M1539.46,480.39h-6.3&#10;&#9;&#9;&#9;&#9;&#9;&#9;&#9;&#9;v-7.86h6.33c2.83,0,4.12,2.06,4.12,3.98C1543.6,478.31,1542.52,480.39,1539.46,480.39z M1534.15,479.41h5.31&#10;&#9;&#9;&#9;&#9;&#9;&#9;&#9;&#9;c1.97,0,3.15-1.08,3.15-2.89c0-1.49-0.97-2.99-3.13-2.99h-5.33V479.41z" class="st0"/>
						</g>
					</g>
				</g>
			</g>
		</g>
	</g>
</g>
<g id="Layer_2">
</g>
</svg>